<?xml version="1.0" encoding="UTF-8"?>
<svg xmlns="http://www.w3.org/2000/svg" xmlns:xlink="http://www.w3.org/1999/xlink"
     width="830" height="480" viewBox="0 0 830 480" displayInline="False">
<defs>
</defs>
<path d="M15.0,65.0 v-10 v-40 h40 v30 h-20 v-10 h10 v-10 h-20 v30 h40 v-40 h40 v30 h-20 v-10 h10 v-10 h-20 v30 h40 v-40 h40 v30 h-20 v-10 h10 v-10 h-20 v30 h40 v-40 h40 v30 h-20 v-10 h10 v-10 h-20 v30 h40 v-40 h40 v30 h-20 v-10 h10 v-10 h-20 v30 h40 v-40 h40 v30 h-20 v-10 h10 v-10 h-20 v30 h40 v-40 h40 v30 h-20 v-10 h10 v-10 h-20 v30 h40 v-40 h40 v30 h-20 v-10 h10 v-10 h-20 v30 h40 v-40 h40 v30 h-20 v-10 h10 v-10 h-20 v30 h40 v-40 h40 v30 h-20 v-10 h10 v-10 h-20 v30 h40 v-40 h40 v30 h-20 v-10 h10 v-10 h-20 v30 h40 v-40 h40 v30 h-20 v-10 h10 v-10 h-20 v30 h40 v-40 h40 v30 h-20 v-10 h10 v-10 h-20 v30 h40 v-40 h40 v30 h-20 v-10 h10 v-10 h-20 v30 h40 v-40 h40 v30 h-20 v-10 h10 v-10 h-20 v30 h40 v-40 h10 h40 v40 h-30 v-20 h10 v10 h10 v-20 h-30 v40 h40 v40 h-30 v-20 h10 v10 h10 v-20 h-30 v40 h40 v40 h-30 v-20 h10 v10 h10 v-20 h-30 v40 h40 v40 h-30 v-20 h10 v10 h10 v-20 h-30 v40 h40 v40 h-30 v-20 h10 v10 h10 v-20 h-30 v40 h40 v40 h-30 v-20 h10 v10 h10 v-20 h-30 v40 h40 v40 h-30 v-20 h10 v10 h10 v-20 h-30 v40 h40 v40 h-30 v-20 h10 v10 h10 v-20 h-30 v40 M15.0,65.0 h40 v40 h-30 v-20 h10 v10 h10 v-20 h-30 v40 h40 v40 h-30 v-20 h10 v10 h10 v-20 h-30 v40 h40 v40 h-30 v-20 h10 v10 h10 v-20 h-30 v40 h40 v40 h-30 v-20 h10 v10 h10 v-20 h-30 v40 h40 v40 h-30 v-20 h10 v10 h10 v-20 h-30 v40 h40 v40 h-30 v-20 h10 v10 h10 v-20 h-30 v40 h40 v40 h-30 v-20 h10 v10 h10 v-20 h-30 v40 h40 v40 h-30 v-20 h10 v10 h10 v-20 h-30 v40 h50 v-40 h40 v30 h-20 v-10 h10 v-10 h-20 v30 h40 v-40 h40 v30 h-20 v-10 h10 v-10 h-20 v30 h40 v-40 h40 v30 h-20 v-10 h10 v-10 h-20 v30 h40 v-40 h40 v30 h-20 v-10 h10 v-10 h-20 v30 h40 v-40 h40 v30 h-20 v-10 h10 v-10 h-20 v30 h40 v-40 h40 v30 h-20 v-10 h10 v-10 h-20 v30 h40 v-40 h40 v30 h-20 v-10 h10 v-10 h-20 v30 h40 v-40 h40 v30 h-20 v-10 h10 v-10 h-20 v30 h40 v-40 h40 v30 h-20 v-10 h10 v-10 h-20 v30 h40 v-40 h40 v30 h-20 v-10 h10 v-10 h-20 v30 h40 v-40 h40 v30 h-20 v-10 h10 v-10 h-20 v30 h40 v-40 h40 v30 h-20 v-10 h10 v-10 h-20 v30 h40 v-40 h40 v30 h-20 v-10 h10 v-10 h-20 v30 h40 v-40 h40 v30 h-20 v-10 h10 v-10 h-20 v30 h40 v-40 h40 v30 h-20 v-10 h10 v-10 h-20 v30 h40 v-50 h-40 M5.0,5.0 h820 v470 h-820 v-470 M65.0,65.0 h700 v350 h-700 v-350" stroke="#AB8E0E" stroke-width="6.0" stroke-opacity="0.7" fill="none" />
</svg>