<?xml version="1.0" encoding="UTF-8"?>
<svg xmlns="http://www.w3.org/2000/svg" xmlns:xlink="http://www.w3.org/1999/xlink"
     width="2075" height="1200" viewBox="0 0 2075 1200" displayInline="False">
<defs>
</defs>
<path d="M37.5,162.5 v-25 v-100 h100 v75 h-50 v-25 h25 v-25 h-50 v75 h100 v-100 h100 v75 h-50 v-25 h25 v-25 h-50 v75 h100 v-100 h100 v75 h-50 v-25 h25 v-25 h-50 v75 h100 v-100 h100 v75 h-50 v-25 h25 v-25 h-50 v75 h100 v-100 h100 v75 h-50 v-25 h25 v-25 h-50 v75 h100 v-100 h100 v75 h-50 v-25 h25 v-25 h-50 v75 h100 v-100 h100 v75 h-50 v-25 h25 v-25 h-50 v75 h100 v-100 h100 v75 h-50 v-25 h25 v-25 h-50 v75 h100 v-100 h100 v75 h-50 v-25 h25 v-25 h-50 v75 h100 v-100 h100 v75 h-50 v-25 h25 v-25 h-50 v75 h100 v-100 h100 v75 h-50 v-25 h25 v-25 h-50 v75 h100 v-100 h100 v75 h-50 v-25 h25 v-25 h-50 v75 h100 v-100 h100 v75 h-50 v-25 h25 v-25 h-50 v75 h100 v-100 h100 v75 h-50 v-25 h25 v-25 h-50 v75 h100 v-100 h100 v75 h-50 v-25 h25 v-25 h-50 v75 h100 v-100 h25 h100 v100 h-75 v-50 h25 v25 h25 v-50 h-75 v100 h100 v100 h-75 v-50 h25 v25 h25 v-50 h-75 v100 h100 v100 h-75 v-50 h25 v25 h25 v-50 h-75 v100 h100 v100 h-75 v-50 h25 v25 h25 v-50 h-75 v100 h100 v100 h-75 v-50 h25 v25 h25 v-50 h-75 v100 h100 v100 h-75 v-50 h25 v25 h25 v-50 h-75 v100 h100 v100 h-75 v-50 h25 v25 h25 v-50 h-75 v100 h100 v100 h-75 v-50 h25 v25 h25 v-50 h-75 v100 M37.5,162.5 h100 v100 h-75 v-50 h25 v25 h25 v-50 h-75 v100 h100 v100 h-75 v-50 h25 v25 h25 v-50 h-75 v100 h100 v100 h-75 v-50 h25 v25 h25 v-50 h-75 v100 h100 v100 h-75 v-50 h25 v25 h25 v-50 h-75 v100 h100 v100 h-75 v-50 h25 v25 h25 v-50 h-75 v100 h100 v100 h-75 v-50 h25 v25 h25 v-50 h-75 v100 h100 v100 h-75 v-50 h25 v25 h25 v-50 h-75 v100 h100 v100 h-75 v-50 h25 v25 h25 v-50 h-75 v100 h125 v-100 h100 v75 h-50 v-25 h25 v-25 h-50 v75 h100 v-100 h100 v75 h-50 v-25 h25 v-25 h-50 v75 h100 v-100 h100 v75 h-50 v-25 h25 v-25 h-50 v75 h100 v-100 h100 v75 h-50 v-25 h25 v-25 h-50 v75 h100 v-100 h100 v75 h-50 v-25 h25 v-25 h-50 v75 h100 v-100 h100 v75 h-50 v-25 h25 v-25 h-50 v75 h100 v-100 h100 v75 h-50 v-25 h25 v-25 h-50 v75 h100 v-100 h100 v75 h-50 v-25 h25 v-25 h-50 v75 h100 v-100 h100 v75 h-50 v-25 h25 v-25 h-50 v75 h100 v-100 h100 v75 h-50 v-25 h25 v-25 h-50 v75 h100 v-100 h100 v75 h-50 v-25 h25 v-25 h-50 v75 h100 v-100 h100 v75 h-50 v-25 h25 v-25 h-50 v75 h100 v-100 h100 v75 h-50 v-25 h25 v-25 h-50 v75 h100 v-100 h100 v75 h-50 v-25 h25 v-25 h-50 v75 h100 v-100 h100 v75 h-50 v-25 h25 v-25 h-50 v75 h100 v-125 h-100 M12.5,12.5 h2050 v1175 h-2050 v-1175 Z M162.5,162.5 h1750 v875 h-1750 v-875 Z" stroke="#AB8E0E" stroke-width="6.0" stroke-opacity="0.7" fill="none" stroke-linecap="square" />
</svg>